<svg width="235" height="50" viewBox="0 0 235 50" fill="none" xmlns="http://www.w3.org/2000/svg">
<mask id="mask0_2001_49" style="mask-type:luminance" maskUnits="userSpaceOnUse" x="61" y="9" width="174" height="41">
<path d="M234.351 9.84753H61.2031V49.1734H234.351V9.84753Z" fill="white"/>
</mask>
<g mask="url(#mask0_2001_49)">
<path d="M83.4769 31.9288V31.7522C83.4769 25.4398 79.2922 22.4822 72.4489 22.4822H66.9563V14.4923H78.8789L80.7743 9.8573H61.2031V41.4196H72.318C79.4665 41.4196 83.4769 38.0206 83.4769 31.9288ZM66.9563 36.917V26.7199H71.9259C75.9791 26.7199 77.8974 28.4857 77.8974 31.7081V31.8847C77.8974 35.1513 75.9792 36.917 72.1437 36.917H66.9563Z" fill="black"/>
<path d="M89.0358 49.3212H94.2231L106.646 18.3327H101.503L95.9231 33.209L89.8641 18.3327H84.1543L93.1771 39.08L89.0358 49.3212Z" fill="black"/>
<path d="M124.037 41.4196H130.139L120.549 29.0154L129.398 18.3327H123.644L115.493 28.574V18.3327H110.219V41.4196H115.493V30.119L124.037 41.4196Z" fill="black"/>
<path d="M145.604 41.4196H147.348L154.54 23.9831V41.4196H159.727V18.3327H152.884L147.13 32.7234L141.419 18.3327H134.141V41.4196H138.673V23.9831L145.604 41.4196Z" fill="black"/>
<path d="M175.781 41.861C181.622 41.861 185.502 39.2124 186.242 34.3567H181.143C180.75 36.608 179.094 37.8881 175.912 37.8881C171.989 37.8881 169.81 35.4161 169.636 31.046H186.33V29.501C186.33 21.2462 181.23 17.8472 175.563 17.8472C169.069 17.8472 164.23 22.6147 164.23 29.7658V30.119C164.23 37.4026 169.069 41.861 175.781 41.861ZM169.722 27.4704C170.246 23.8948 172.382 21.7318 175.563 21.7318C178.833 21.7318 180.837 23.4975 181.099 27.4704H169.722Z" fill="black"/>
<path d="M196.149 41.4196L206 25.0867V41.4196H211.23V18.3327H206L196.149 34.6657V18.3327H190.875V41.4196H196.149Z" fill="black"/>
<path d="M234.353 18.3327H215.129V22.3057H222.103V41.4196H227.379V22.3057H234.353V18.3327Z" fill="black"/>
<path d="M197.619 9.84764H207.345L205.7 13.8781H195.975L197.619 9.84764Z" fill="black"/>
</g>
<path fill-rule="evenodd" clip-rule="evenodd" d="M28.0447 32.6586C25.844 36.3431 22.4274 37.9671 18.8359 37.9671C11.6557 37.9671 6.30681 32.9222 6.30681 25.3525V24.9784C6.30681 24.622 6.32186 24.2937 6.34414 23.9502L37.3059 23.9983V0.163424L18.8109 13.4998L0.412109 0.121796V49.1734H37.3059V37.9666C33.7333 37.9536 30.4816 36.3286 28.0447 32.6586Z" fill="black"/>
</svg>
