<svg width="956" height="450" viewBox="0 0 956 450" fill="none" xmlns="http://www.w3.org/2000/svg">
<path d="M60.4772 2.42294C55.0497 5.13665 50.9792 9.78873 48.847 15.7977C45.3579 25.3926 45.0671 70.0719 48.4593 81.5083C50.01 86.8388 53.3052 91.297 58.4419 94.6892C63.9662 98.3721 70.3628 99.5351 77.244 98.0813C88.0989 95.8522 94.4955 88.3895 96.5308 75.5963L97.2092 71.7195H89.3588H81.6053L80.9269 75.7901C79.9577 81.1206 76.7594 84.3189 72.2043 84.3189C63.094 84.3189 61.9309 80.2483 61.9309 49.7191C61.834 24.3265 62.6094 18.6083 66.6799 15.5069C69.7813 12.987 75.0149 12.987 77.5348 15.5069C78.6009 16.573 79.9577 19.3836 80.5392 21.8066L81.6053 26.1679H89.3588H97.1123L96.4338 22.485C94.9801 14.3439 93.4294 11.0487 89.165 6.78426C84.1252 1.74451 79.5701 -2.28882e-05 71.0413 -2.28882e-05C66.8738 -2.28882e-05 63.9662 0.678406 60.4772 2.42294Z" fill="black"/>
<path d="M383.893 1.06612C378.95 2.51989 371.972 10.1764 369.839 16.4761C367.513 23.4542 366.447 59.9925 368.192 73.0764C369.549 82.8652 371.39 87.1296 376.624 92.3632C383.311 99.0505 395.814 100.698 404.924 96.0461C411.999 92.4601 417.717 83.059 417.717 74.9179V71.7196H409.964C402.501 71.7196 402.21 71.8165 402.21 74.0456C402.21 77.6316 400.272 82.3806 398.333 83.3498C395.717 84.8035 390.289 84.5128 388.06 82.8652C384.183 80.2484 383.311 73.9487 383.311 48.4592C383.311 27.7187 383.505 24.1327 385.056 20.0621C386.994 15.0224 388.932 13.5686 393.391 13.5686C397.655 13.5686 401.241 17.1546 401.919 22.0974L402.501 26.168H410.061H417.717V22.8727C417.717 18.6083 415.391 12.0179 412.387 8.14115C408.607 3.19832 401.144 1.52588e-05 393.584 0.0969315C389.998 0.0969315 385.734 0.58152 383.893 1.06612Z" fill="black"/>
<path d="M745.69 2.42293C740.457 5.13664 735.611 10.8548 733.576 16.9607C732.51 19.8682 732.219 27.6217 732.219 49.4283C732.316 74.2394 732.51 78.6007 733.963 82.2836C736.386 88.3895 739.875 92.557 745.109 95.6584C748.889 97.8875 750.73 98.3721 756.933 98.3721C765.462 98.3721 769.92 96.5306 775.541 90.8124C781.938 84.222 782.616 80.2483 782.616 48.9437C782.616 18.2206 782.035 14.7316 775.444 7.46268C770.598 2.03526 765.656 -2.28882e-05 757.321 -2.28882e-05C751.99 -2.28882e-05 749.567 0.484566 745.69 2.42293ZM761.876 14.5377C766.334 16.9607 767.012 20.3528 767.4 44.5824C767.982 77.05 766.431 83.5436 757.902 84.1251C749.083 84.8035 747.241 78.9884 747.241 49.4283C747.241 27.8155 748.404 19.0929 751.699 15.7977C754.122 13.3747 758.581 12.8901 761.876 14.5377Z" fill="black"/>
<path d="M0 49.4284V97.8875H20.3528H40.7057V90.6186V83.3498H28.1063H15.5069V69.7812V56.2126H26.6525H37.7981V48.9438V41.6749H26.6525H15.5069V28.1063V14.5378H28.1063H40.7057V7.75347V0.969193H20.3528H0V49.4284Z" fill="black"/>
<path d="M96.918 7.65656V14.4408L104.962 14.7316L112.909 15.0223L113.2 56.4065L113.394 97.8875H121.148H128.901V56.2126V14.5378H136.654C145.377 14.5378 145.765 14.1501 145.183 5.71819L144.893 1.45378L120.954 1.16302L96.918 0.969193V7.65656Z" fill="black"/>
<path d="M150.223 49.4284V97.8875H164.082C185.598 97.7906 191.994 95.4646 196.453 85.6758C199.748 78.31 200.62 64.5476 198.294 55.825C194.999 43.6133 187.827 38.7673 173.289 38.7673H165.73V19.8683V0.969193H157.976H150.223V49.4284ZM178.62 53.402C181.818 54.8558 183.272 58.3448 183.95 65.6137C184.532 72.8826 182.787 79.9576 179.88 81.896C178.62 82.7683 175.615 83.3498 171.835 83.3498H165.73V67.8428V52.3359H171.06C173.968 52.3359 177.36 52.8205 178.62 53.402Z" fill="black"/>
<path d="M233.282 36.0536C233.088 60.8647 232.604 72.3011 231.731 75.0148C229.987 80.3453 226.692 83.3498 222.427 83.3498H219.035V90.6186V97.8875H223.203C230.568 97.7906 235.802 96.0461 239.679 92.2662C247.141 84.9974 248.983 73.9487 249.08 36.5382V14.5378H256.349H263.618V56.2126V97.8875H271.371H279.125V49.4284V0.969193H256.446H233.67L233.282 36.0536Z" fill="black"/>
<path d="M289.785 49.4283V97.9844L296.666 97.6937L303.644 97.4029L313.918 69.2966L324.191 41.1903L324.482 69.4904L324.676 97.8875H332.429H340.183V49.4283V0.872253L333.205 1.16301L326.323 1.45377L321.187 15.5069C318.279 23.2604 313.724 35.8598 310.913 43.6132L305.777 57.5695L305.486 29.2693L305.292 0.96917H297.539H289.785V49.4283Z" fill="black"/>
<path d="M425.18 1.64763C424.793 1.93838 424.502 23.745 424.502 50.1068V97.8875H438.555C454.837 97.8875 460.749 96.8214 465.983 93.0416C472.186 88.5834 474.318 82.9621 474.221 70.8473C474.221 59.1202 472.477 53.5958 467.34 49.2345L464.432 46.8116L467.146 44.7763C471.701 41.3841 473.93 35.3752 473.93 26.4587C473.93 22.1943 473.64 17.2515 473.252 15.5069C472.38 10.9518 464.82 3.39216 459.877 2.0353C455.71 0.872276 426.246 0.581528 425.18 1.64763ZM456.194 17.9299C458.036 20.0621 458.423 21.6128 458.423 26.9433C458.423 35.7629 456.291 39.3489 450.379 40.2211C448.053 40.6088 444.952 40.7057 443.304 40.5119L440.493 40.2211L440.203 28.6878C440.106 22.2912 440.203 16.4761 440.493 15.7008C440.881 14.5378 442.432 14.3439 447.472 14.8285C452.996 15.2162 454.353 15.7008 456.194 17.9299ZM455.225 56.5034C459.102 60.2832 459.974 71.8165 456.97 79.57C456 81.9929 452.124 83.3498 445.824 83.3498H440.009V68.9089C440.009 58.151 440.3 54.3712 441.269 53.9835C441.85 53.7897 444.855 53.7897 447.762 53.9835C451.542 54.2743 453.771 55.0496 455.225 56.5034Z" fill="black"/>
<path d="M483.623 49.4284V97.8875H503.976H524.329V90.6186V83.3498H511.729H499.13V69.7812V56.2126H509.306C521.13 56.2126 521.712 55.728 521.227 47.1992L520.937 42.1595L510.082 41.8687L499.13 41.578V28.1063V14.5378H511.729H524.329V7.75347V0.969193H503.976H483.623V49.4284Z" fill="black"/>
<path d="M526.266 7.75347V14.5378H534.504H542.742V56.2126V97.8875H550.495H558.249V56.2126V14.5378H566.487H574.725V7.75347V0.969193H550.495H526.266V7.75347Z" fill="black"/>
<path d="M598.955 49.5253V98.0813L615.237 97.6937C627.934 97.4029 632.295 96.9183 635.299 95.5615C644.604 91.4909 647.899 84.9004 647.899 70.2658C647.899 58.8294 645.96 52.5297 641.405 49.3314L638.498 47.2961L641.405 44.1947C642.956 42.5471 644.797 40.2211 645.379 39.0581C647.608 34.7937 648.48 26.7495 647.511 19.9652C646.251 11.2425 643.053 6.39661 636.462 3.29522C631.81 1.16302 630.26 0.969177 615.237 0.969177H598.955V49.5253ZM629.097 17.1545C633.167 21.2251 633.264 34.0183 629.194 38.0889C627.643 39.6396 625.608 40.2211 620.762 40.5119L614.462 40.8995V27.6217V14.3439L620.762 14.7316C625.511 15.0223 627.643 15.6038 629.097 17.1545ZM629.581 56.6972C631.81 59.7017 633.167 66.0014 632.586 71.235C631.617 80.8299 629 83.3497 619.793 83.3497H614.462V69.0058C614.462 61.0585 614.656 54.3712 614.85 54.1773C615.14 53.8866 618.242 53.9835 621.731 54.2743C626.674 54.6619 628.612 55.2434 629.581 56.6972Z" fill="black"/>
<path d="M676.296 1.64762C676.102 2.13221 676.102 23.9388 676.296 50.1068L676.49 97.8875H683.758H691.027L691.221 78.6977C691.415 56.8911 691.609 50.3975 692.19 49.9129C692.384 49.7191 697.521 60.2832 703.724 73.4641L714.869 97.4029L723.301 97.6937C727.953 97.7906 731.733 97.7906 731.733 97.4998C731.733 97.0152 724.755 82.1867 714.869 61.737L707.503 46.4239L718.164 24.3265C724.076 12.1148 728.825 1.84145 728.825 1.5507C728.825 1.25995 725.336 0.969193 720.975 0.969193H713.222L705.953 16.1854C701.979 24.6173 697.327 34.406 695.679 37.992C693.935 41.6749 692.287 44.5824 691.997 44.5824C691.512 44.5824 691.124 25.5864 691.027 2.13221C691.027 0.872269 676.877 0.38768 676.296 1.64762Z" fill="black"/>
<path d="M791.532 1.64762C791.144 1.93837 790.854 23.745 790.854 50.1068V97.8875H798.607H806.36L806.554 76.7593L806.845 55.728H815.858H824.969L824.775 76.7593L824.678 97.8875H833.013H841.251L841.057 49.6222L840.766 1.45378H833.013H825.26L825.163 21.322L825.066 41.1903H815.955H806.845L806.554 21.0313L806.36 0.969193H799.188C795.312 0.969193 791.823 1.25995 791.532 1.64762Z" fill="black"/>
<path d="M850.941 49.4283V97.8875H872.748H894.555V105.641V113.394H901.824H909.092V98.3721V83.3497H904.731H900.37V42.1594V0.969162H892.616H884.863V42.1594V83.3497H875.656H866.448V42.1594V0.969162H858.695H850.941V49.4283Z" fill="black"/>
<path d="M914.908 49.4284V97.8875H935.261H955.614V90.6186V83.3498H943.015H930.415V69.7812V56.3096L940.882 56.0188L951.253 55.728L951.543 48.653L951.834 41.6749H941.076H930.415V28.1063V14.5378H943.015H955.614V7.75347V0.969193H935.261H914.908V49.4284Z" fill="black"/>
<path d="M161.852 117.271C145.376 120.179 130.838 131.712 124.345 147.219L121.631 153.616L121.34 264.975C121.146 354.43 121.34 376.528 122.309 377.206C123.375 377.788 123.375 377.981 122.309 377.981C120.565 377.981 120.856 408.511 122.697 415.489C126.768 431.287 138.301 443.304 153.614 447.666C160.398 449.701 172.707 450.573 180.654 449.604C189.668 448.635 197.324 446.309 198.099 444.274C198.39 443.595 199.65 442.917 200.91 442.917C204.981 442.917 215.351 432.45 219.325 424.308C223.007 416.846 225.043 409.092 223.007 410.352C222.426 410.74 221.941 410.449 221.941 409.577C221.941 408.705 222.523 408.123 223.201 408.22C225.043 408.608 225.43 162.435 223.492 153.131C219.518 134.426 206.725 121.826 187.438 117.756C180.363 116.205 169.024 116.011 161.852 117.271ZM176.487 154.1C181.43 156.814 181.236 151.386 181.236 283.001C181.236 413.938 181.333 410.255 176.584 412.775C173.482 414.423 170.962 414.035 167.958 411.515L165.244 409.189L164.953 391.647C164.663 377.303 164.372 374.105 163.209 374.105C162.434 374.105 161.852 373.426 161.852 372.651C161.852 371.876 162.53 371.197 163.306 371.197C164.566 371.197 164.76 358.985 164.76 267.204C164.76 198.683 165.147 162.047 165.729 159.721C167.279 154.1 171.932 151.677 176.487 154.1ZM143.438 324.773C143.438 326.518 143.05 327.487 142.468 327.099C141.984 326.809 141.499 325.161 141.499 323.61C141.499 321.866 141.887 320.897 142.468 321.284C143.05 321.575 143.438 323.223 143.438 324.773ZM133.746 325.064C133.746 325.355 133.358 325.839 132.777 326.13C132.292 326.421 131.807 326.227 131.807 325.742C131.807 325.161 132.292 324.676 132.777 324.676C133.358 324.676 133.746 324.87 133.746 325.064ZM215.157 326.615C215.157 327.099 214.769 327.584 214.188 327.584C213.703 327.584 213.219 327.099 213.219 326.615C213.219 326.033 213.703 325.646 214.188 325.646C214.769 325.646 215.157 326.033 215.157 326.615ZM132.292 352.686C132.583 353.17 132.389 353.849 131.807 354.236C131.323 354.527 130.838 354.14 130.838 353.364C130.838 351.62 131.42 351.329 132.292 352.686ZM185.112 365.382C185.112 365.867 184.628 366.351 184.046 366.351C183.562 366.351 183.368 365.867 183.659 365.382C183.949 364.801 184.434 364.413 184.725 364.413C184.919 364.413 185.112 364.801 185.112 365.382ZM209.342 369.259C209.342 369.743 208.664 370.228 207.888 370.228C207.113 370.228 206.434 369.743 206.434 369.259C206.434 368.677 207.113 368.29 207.888 368.29C208.664 368.29 209.342 368.677 209.342 369.259ZM206.434 374.492C206.434 375.268 206.047 376.237 205.465 376.528C204.981 376.818 204.496 378.175 204.496 379.532C204.496 380.792 204.108 381.858 203.527 381.858C203.042 381.858 202.558 379.92 202.558 377.497C202.558 373.814 202.848 373.136 204.496 373.136C205.562 373.136 206.434 373.717 206.434 374.492ZM135.2 378.951C135.49 379.435 135.296 379.92 134.812 379.92C134.23 379.92 133.746 379.435 133.746 378.951C133.746 378.369 133.94 377.981 134.133 377.981C134.424 377.981 134.909 378.369 135.2 378.951ZM205.465 387.286C205.465 388.061 205.078 388.449 204.496 388.158C204.012 387.867 203.527 387.189 203.527 386.607C203.527 386.123 204.012 385.735 204.496 385.735C205.078 385.735 205.465 386.413 205.465 387.286ZM146.345 392.616C146.345 393.682 145.279 393.682 143.534 392.616C142.856 392.132 142.565 391.259 142.953 390.678C143.438 389.805 143.922 389.805 144.988 390.678C145.764 391.259 146.345 392.132 146.345 392.616ZM205.465 421.207C205.465 421.982 205.078 422.564 204.496 422.564C204.012 422.564 203.527 421.692 203.527 420.529C203.527 419.462 204.012 418.881 204.496 419.172C205.078 419.462 205.465 420.432 205.465 421.207ZM199.65 426.053C199.65 427.216 200.329 427.41 202.558 426.925C204.399 426.538 205.465 426.634 205.465 427.313C205.465 428.67 198.003 428.767 197.227 427.41C196.549 426.247 197.421 424.502 198.778 424.502C199.263 424.502 199.65 425.181 199.65 426.053ZM187.051 433.225C187.051 433.709 186.663 434.194 186.082 434.194C185.597 434.194 185.112 433.709 185.112 433.225C185.112 432.643 185.597 432.256 186.082 432.256C186.663 432.256 187.051 432.643 187.051 433.225ZM154.874 434.969C155.068 435.648 154.583 436.132 153.711 436.132C152.839 436.132 152.16 435.454 152.16 434.582C152.16 432.934 154.292 433.225 154.874 434.969ZM190.928 438.168C190.928 438.652 190.54 439.04 189.958 439.04C189.474 439.04 188.989 438.362 188.989 437.489C188.989 436.714 189.474 436.326 189.958 436.617C190.54 436.908 190.928 437.586 190.928 438.168ZM194.029 438.265C193.351 438.943 192.866 439.04 192.866 438.458C192.866 437.102 194.029 435.939 194.707 436.617C194.901 436.908 194.61 437.683 194.029 438.265ZM174.451 443.692C174.451 444.661 175.033 446.018 175.711 446.697C176.681 447.666 176.487 447.86 174.936 447.569C172.901 447.278 171.447 441.948 173.385 441.948C173.967 441.948 174.451 442.723 174.451 443.692Z" fill="black"/>
<path d="M891.163 118.047C883.216 120.76 877.691 124.54 871.004 131.809C857.532 146.444 851.233 166.603 849.391 201.009L848.713 214.189H868.29H887.771V208.084C887.771 185.986 893.198 172.515 902.115 172.515C913.164 172.515 917.525 185.502 916.653 214.965C915.877 237.256 914.908 240.551 900.855 267.979C883.991 301.028 882.925 304.905 882.925 334.077V352.783H902.212H921.499L921.886 335.531C922.371 314.791 922.468 314.5 937.296 285.909C950.477 260.516 952.512 254.314 954.645 232.701C956.583 212.445 955.42 186.374 951.64 168.832C947.763 151.096 941.076 137.43 931.675 128.32C921.111 118.047 903.859 113.685 891.163 118.047Z" fill="black"/>
<path d="M0 138.593V158.946H16.4761H32.9522V303.354V447.763L55.0496 447.569L77.0501 447.278L77.2439 414.326C77.3408 396.202 77.4377 331.364 77.4377 270.111L77.5347 158.946H94.0108H110.487L110.293 138.787L110.002 118.725L55.0496 118.434L0 118.24V138.593ZM73.0764 319.443C73.9487 321.769 73.7548 324.676 72.6887 324.676C72.2041 324.676 71.7196 324.192 71.7196 323.707C71.7196 321.963 71.5257 321.284 70.6535 319.54C69.975 318.377 70.0719 317.892 71.138 317.892C71.8165 317.892 72.7857 318.57 73.0764 319.443ZM54.7588 324.386C55.0496 325.646 54.9527 326.615 54.4681 326.615C53.402 326.615 52.3359 324.289 52.3359 321.963C52.3359 319.927 53.7897 321.478 54.7588 324.386ZM70.2658 326.615C70.5565 327.099 70.3627 327.584 69.8781 327.584C69.2966 327.584 68.812 327.099 68.812 326.615C68.812 326.033 69.0058 325.646 69.1997 325.646C69.4904 325.646 69.975 326.033 70.2658 326.615ZM45.067 337.179C45.3578 337.663 45.1639 338.342 44.5824 338.729C44.0978 339.02 43.6132 338.633 43.6132 337.857C43.6132 336.113 44.1948 335.822 45.067 337.179ZM64.9353 371.197C64.9353 371.682 64.5476 372.166 63.9661 372.166C63.4815 372.166 62.9969 371.682 62.9969 371.197C62.9969 370.616 63.4815 370.228 63.9661 370.228C64.5476 370.228 64.9353 370.616 64.9353 371.197ZM70.7504 380.889C70.7504 381.374 70.3627 381.858 69.7812 381.858C69.2966 381.858 68.812 381.374 68.812 380.889C68.812 380.307 69.2966 379.92 69.7812 379.92C70.3627 379.92 70.7504 380.307 70.7504 380.889ZM62.0277 398.334C62.0277 398.819 61.64 399.303 61.0585 399.303C60.5739 399.303 60.0894 398.819 60.0894 398.334C60.0894 397.753 60.5739 397.365 61.0585 397.365C61.64 397.365 62.0277 397.753 62.0277 398.334ZM39.2519 401.339C39.2519 402.017 38.4766 402.793 37.6043 402.986C35.8598 403.277 35.1813 401.242 36.5382 399.885C37.5074 398.916 39.2519 399.788 39.2519 401.339ZM58.151 404.149C58.151 404.634 57.7633 405.119 57.1818 405.119C56.6972 405.119 56.2126 404.634 56.2126 404.149C56.2126 403.568 56.6972 403.18 57.1818 403.18C57.7633 403.18 58.151 403.568 58.151 404.149ZM57.9572 410.255C58.2479 411.418 57.5695 411.903 55.825 411.903C53.2082 411.903 52.239 409.577 54.565 408.705C56.4065 407.929 57.6664 408.511 57.9572 410.255ZM70.1689 415.295C70.4596 416.167 70.1689 416.749 69.2966 416.749C68.5212 416.749 67.8428 416.07 67.8428 415.295C67.8428 414.52 68.2305 413.841 68.7151 413.841C69.1997 413.841 69.7812 414.52 70.1689 415.295ZM40.7057 417.718C40.7057 418.203 40.0273 418.687 39.2519 418.687C38.4766 418.687 37.7981 418.203 37.7981 417.718C37.7981 417.136 38.4766 416.749 39.2519 416.749C40.0273 416.749 40.7057 417.136 40.7057 417.718ZM54.2743 426.441C54.2743 426.925 53.8866 427.41 53.3051 427.41C52.8205 427.41 52.3359 426.925 52.3359 426.441C52.3359 425.859 52.8205 425.471 53.3051 425.471C53.8866 425.471 54.2743 425.859 54.2743 426.441ZM46.23 433.419C45.9393 434.194 45.6485 433.903 45.6485 432.837C45.5516 431.771 45.8424 431.19 46.1331 431.577C46.4239 431.868 46.5208 432.74 46.23 433.419ZM46.1331 440.494C47.7807 445.243 47.7807 444.855 46.0362 444.855C45.2609 444.855 44.5824 444.37 44.5824 443.789C44.5824 443.207 43.6132 441.948 42.4502 441.075C41.0934 439.912 40.6088 438.749 40.9964 437.683C42.0625 434.872 44.6793 436.326 46.1331 440.494Z" fill="black"/>
<path d="M244.234 283.001V447.666L261.195 447.956C274.279 448.15 278.156 447.956 278.156 446.987C278.156 446.406 278.931 445.824 279.9 445.824C281.257 445.824 281.354 446.018 280.094 446.793C279.028 447.472 279.9 447.763 283.292 447.763C287.557 447.763 287.848 447.569 287.848 445.243C287.848 443.886 287.46 443.014 286.975 443.304C286.588 443.595 285.425 443.014 284.455 441.948C283.002 440.397 282.905 439.718 283.874 438.749C284.843 437.877 285.328 437.974 286.491 439.525C287.751 441.269 287.945 439.525 287.848 423.048C287.751 412.872 287.751 381.18 287.751 352.492L287.848 300.447H295.601H303.355L303.451 342.8C303.451 366.157 303.451 399.303 303.355 416.458L303.258 447.763L325.064 447.666H346.968V283.001V118.24H325.161H303.355V189.475V260.71H295.601H287.848V189.475V118.24H266.041H244.234V283.001ZM319.637 122.989C319.928 123.765 319.54 124.152 318.765 123.862C318.086 123.668 317.311 122.892 317.117 122.214C316.826 121.439 317.214 121.051 317.989 121.342C318.668 121.536 319.443 122.311 319.637 122.989ZM251.503 320.121C251.697 324.386 251.503 327.778 251.019 328.068C250.437 328.456 250.049 327.487 250.049 325.936C249.953 324.483 249.371 322.156 248.596 320.8C246.657 317.504 246.754 314.306 248.79 313.143C249.759 312.658 250.631 312.368 250.728 312.465C250.922 312.562 251.212 316.051 251.503 320.121ZM272.341 315.469C273.698 317.02 273.31 317.214 270.984 316.341C270.112 316.051 269.433 315.372 269.433 314.888C269.433 313.531 270.984 313.822 272.341 315.469ZM249.08 328.068C249.08 328.844 248.402 329.522 247.627 329.522C246.851 329.522 246.173 328.844 246.173 328.068C246.173 327.293 246.851 326.615 247.627 326.615C248.402 326.615 249.08 327.293 249.08 328.068ZM248.79 343.188C248.886 346.483 248.499 347.937 247.82 347.646C246.367 347.161 246.27 338.245 247.627 338.245C248.208 338.245 248.693 340.474 248.79 343.188ZM252.763 354.915C252.182 356.659 250.049 356.95 250.049 355.303C250.049 354.43 250.728 353.752 251.6 353.752C252.472 353.752 252.957 354.236 252.763 354.915ZM250.049 363.928C250.049 364.704 249.662 365.382 249.08 365.382C248.596 365.382 248.111 364.704 248.111 363.928C248.111 363.153 248.596 362.474 249.08 362.474C249.662 362.474 250.049 363.153 250.049 363.928ZM250.049 369.743C250.049 370.519 249.662 371.197 249.08 371.197C248.596 371.197 248.111 370.519 248.111 369.743C248.111 368.968 248.596 368.29 249.08 368.29C249.662 368.29 250.049 368.968 250.049 369.743ZM279.125 371.197C279.125 371.682 278.253 372.166 277.09 372.166C276.024 372.166 275.442 371.682 275.733 371.197C276.024 370.616 276.993 370.228 277.768 370.228C278.543 370.228 279.125 370.616 279.125 371.197ZM344.157 372.457C342.897 373.717 341.637 372.748 342.606 371.294C342.897 370.713 343.673 370.519 344.254 370.809C344.836 371.197 344.836 371.779 344.157 372.457ZM280.094 390.484C280.094 392.035 280.385 393.973 280.676 394.845C281.063 395.911 280.773 396.396 279.706 396.396C278.543 396.396 278.156 395.427 278.156 392.035C278.156 389.612 278.64 387.673 279.125 387.673C279.706 387.673 280.094 388.933 280.094 390.484ZM321.769 408.995C321.769 409.48 321.381 409.964 320.8 409.964C320.315 409.964 319.831 409.48 319.831 408.995C319.831 408.414 320.315 408.026 320.8 408.026C321.381 408.026 321.769 408.414 321.769 408.995ZM318.668 415.876C318.474 416.458 317.892 416.846 317.408 416.846C316.923 416.846 316.342 416.458 316.148 415.876C315.954 415.295 316.535 414.81 317.408 414.81C318.28 414.81 318.861 415.295 318.668 415.876ZM281.063 420.625C281.063 421.11 280.385 421.595 279.61 421.595C278.834 421.595 278.156 421.11 278.156 420.625C278.156 420.044 278.834 419.656 279.61 419.656C280.385 419.656 281.063 420.044 281.063 420.625ZM285.909 425.956C287.169 427.507 286.491 429.348 284.455 429.348C283.002 429.348 282.129 427.507 282.808 425.665C283.389 424.115 284.455 424.211 285.909 425.956ZM248.111 437.78C248.111 440.106 245.688 438.652 245.397 436.132C245.107 434.097 245.204 434 246.56 435.066C247.433 435.745 248.111 437.005 248.111 437.78ZM307.231 435.163C307.231 435.648 306.553 436.132 305.778 436.132C305.002 436.132 304.324 435.648 304.324 435.163C304.324 434.582 305.002 434.194 305.778 434.194C306.553 434.194 307.231 434.582 307.231 435.163ZM317.602 435.745C317.311 436.035 316.439 436.132 315.76 435.842C314.985 435.551 315.276 435.26 316.342 435.26C317.408 435.163 317.989 435.454 317.602 435.745ZM265.556 441.075C265.556 443.401 263.327 443.111 262.843 440.688C262.649 439.718 263.133 439.04 264.006 439.04C264.975 439.04 265.556 439.912 265.556 441.075ZM327.584 441.754C327.584 443.111 326.518 443.789 325.064 443.207C323.029 442.432 323.417 440.978 325.646 440.978C326.712 440.978 327.584 441.366 327.584 441.754Z" fill="black"/>
<path d="M368.289 249.565C368.289 366.642 368.483 380.889 369.743 380.889C371.1 380.889 371.1 381.18 369.743 383.797C368.58 386.123 368.289 391.647 368.289 417.233V447.763H390.096H411.902V436.229C411.902 426.925 411.612 424.599 410.449 424.115C409.673 423.824 408.995 422.855 408.995 421.982C408.995 421.013 409.479 420.625 410.449 421.013C411.708 421.498 411.902 418.493 411.902 397.462C411.902 376.915 411.708 373.232 410.449 372.748C409.673 372.457 408.995 371.585 408.995 370.713C408.995 369.937 409.673 369.259 410.449 369.259C411.708 369.259 411.902 364.801 411.902 334.853V300.447H420.14H428.378V374.105V447.763H450.185H471.992V340.668C471.992 257.124 471.701 233.089 470.829 231.635C469.859 230.084 469.859 229.309 470.829 227.758C471.701 226.304 471.992 214.674 471.992 179.396C471.992 136.073 471.895 132.778 470.344 131.906C468.696 130.937 468.696 130.937 470.344 130.84C471.701 130.84 471.992 129.871 471.992 124.637V118.337L450.185 118.24H428.378L428.185 189.185L427.894 260.226L419.947 260.516L411.902 260.807V189.475V118.24H390.096H368.289V249.565ZM459.392 122.117C459.392 122.602 458.714 123.086 457.842 123.086C457.066 123.086 456.679 122.602 456.969 122.117C457.26 121.536 457.939 121.148 458.52 121.148C459.005 121.148 459.392 121.536 459.392 122.117ZM467.146 130.84C467.146 131.324 466.758 131.809 466.177 131.809C465.692 131.809 465.207 131.324 465.207 130.84C465.207 130.258 465.692 129.871 466.177 129.871C466.758 129.871 467.146 130.258 467.146 130.84ZM450.67 137.139C450.67 137.43 450.088 138.593 449.507 139.659C448.537 141.307 448.537 141.888 449.507 142.179C451.348 142.858 450.863 145.087 448.731 145.668C447.762 145.959 446.114 145.571 445.242 144.893C443.498 143.633 444.176 141.501 446.308 141.501C447.181 141.501 447.471 140.919 447.084 139.95C446.793 139.078 447.084 138.012 447.859 137.527C449.41 136.558 450.67 136.364 450.67 137.139ZM437.876 149.254C436.616 151.193 435.163 151.871 435.163 150.417C435.163 149.448 437.295 147.316 438.264 147.316C438.749 147.316 438.555 148.188 437.876 149.254ZM454.353 152.452C454.546 153.616 454.062 154.1 452.705 154.1C451.251 154.1 450.67 153.519 450.67 152.065C450.67 149.642 453.868 149.933 454.353 152.452ZM441.365 153.616C440.784 155.166 438.07 155.651 438.07 154.294C438.07 153.034 439.136 152.162 440.59 152.162C441.365 152.162 441.656 152.743 441.365 153.616ZM445.63 178.524C444.951 180.365 441.947 180.656 441.947 178.911C441.947 177.942 442.819 177.361 443.982 177.361C445.145 177.361 445.824 177.845 445.63 178.524ZM450.67 187.537C450.67 190.348 450.67 190.348 447.277 188.797C443.885 187.246 444.176 185.114 447.762 185.114C450.185 185.114 450.67 185.502 450.67 187.537ZM432.255 187.052C432.255 187.537 431.867 188.022 431.286 188.022C430.801 188.022 430.317 187.537 430.317 187.052C430.317 186.471 430.801 186.083 431.286 186.083C431.867 186.083 432.255 186.471 432.255 187.052ZM469.084 223.009C470.538 225.723 469.472 226.692 467.63 224.269C465.983 222.137 465.789 220.974 467.146 220.974C467.63 220.974 468.503 221.846 469.084 223.009ZM406.087 350.844C406.087 351.329 405.7 351.813 405.118 351.813C404.633 351.813 404.149 351.329 404.149 350.844C404.149 350.263 404.633 349.875 405.118 349.875C405.7 349.875 406.087 350.263 406.087 350.844ZM397.365 373.232C397.365 373.717 396.686 374.105 395.911 374.105C394.457 374.105 393.972 372.942 395.039 371.876C395.814 371.1 397.365 371.972 397.365 373.232ZM384.571 381.664C384.765 383.021 384.378 383.797 383.505 383.797C381.858 383.797 380.598 381.18 381.47 379.823C382.342 378.272 384.281 379.435 384.571 381.664ZM401.92 426.053C402.501 427.604 400.466 429.639 399.109 428.767C398.721 428.476 398.334 427.41 398.334 426.344C398.334 424.115 401.047 423.824 401.92 426.053ZM407.056 425.471C405.118 426.731 403.858 426.731 404.633 425.471C404.924 424.89 405.99 424.502 406.863 424.502C408.316 424.502 408.316 424.696 407.056 425.471ZM396.202 430.511C395.62 432.256 393.488 432.546 393.488 430.899C393.488 430.027 394.166 429.348 395.039 429.348C395.911 429.348 396.395 429.833 396.202 430.511ZM403.858 432.45C403.567 433.225 403.277 432.934 403.277 431.868C403.18 430.802 403.47 430.22 403.761 430.608C404.052 430.899 404.149 431.771 403.858 432.45ZM382.633 432.934C382.148 435.357 379.919 435.648 379.919 433.322C379.919 432.159 380.501 431.286 381.47 431.286C382.342 431.286 382.827 431.965 382.633 432.934ZM373.813 434.388C375.752 436.908 375.946 440.106 374.298 440.688C373.426 440.978 371.972 441.851 371.197 442.529C369.937 443.595 369.743 443.207 369.84 439.234C369.84 436.714 370.034 434.388 370.034 433.903C370.324 432.837 372.844 433.128 373.813 434.388Z" fill="black"/>
<path d="M492.443 169.316C492.346 209.731 492.54 220.489 493.509 221.071C494.478 221.749 494.575 222.234 493.606 223.881C492.927 224.947 492.346 227.564 492.346 229.696C492.346 232.701 492.636 233.379 493.799 232.992C494.575 232.604 495.253 232.895 495.253 233.476C495.253 234.058 494.575 234.542 493.799 234.542C492.54 234.542 492.346 247.045 492.346 341.152V447.763H535.474H578.603V427.894V408.026H556.409C542.452 408.026 533.924 407.638 533.536 407.057C533.245 406.475 533.633 405.797 534.408 405.506C535.765 405.022 535.959 402.696 535.959 391.065C535.959 377.884 535.862 377.206 533.924 376.721C531.404 376.043 531.791 372.457 534.311 372.942C535.862 373.232 535.959 371.003 535.959 343.091C535.959 320.412 535.668 313.046 534.796 313.046C533.924 313.046 533.924 312.755 534.796 311.883C535.474 311.205 535.959 308.394 535.959 305.583V300.447H554.858H573.854L573.66 280.579L573.563 260.71L554.955 260.516L536.444 260.226L535.959 240.939L535.474 221.555L532.858 224.754C531.307 226.498 530.144 228.34 530.144 228.824C530.144 229.696 524.523 233.573 523.166 233.573C521.421 233.573 522.584 230.762 525.686 227.467C527.43 225.529 529.272 223.881 529.562 223.881C529.853 223.881 531.501 222.428 533.051 220.683L535.862 217.582L535.959 188.215V158.946H557.281H578.603V151.677C578.603 144.214 578.021 142.954 575.889 146.347C575.211 147.413 574.242 148.285 573.757 148.285C571.916 148.285 572.885 145.862 575.695 143.051C578.409 140.338 578.506 140.144 578.506 129.386V118.337H568.717L558.929 118.24L555.633 121.632C553.792 123.474 552.144 125.025 551.95 125.025C550.787 125.025 551.66 122.505 553.404 120.663L555.343 118.531L546.62 118.628C540.223 118.628 537.897 119.016 537.897 119.888C537.897 120.566 537.51 121.148 537.025 121.148C536.54 121.148 535.377 121.826 534.602 122.699C533.148 124.055 532.761 123.959 530.047 121.245L527.139 118.24L509.791 118.337H492.54L492.443 169.316ZM524.426 126.285C524.329 127.448 522.972 127.157 522.584 125.897C522.293 125.315 522.681 124.928 523.36 125.122C523.941 125.412 524.426 125.897 524.426 126.285ZM512.311 129.58C511.245 130.646 510.469 128.998 511.245 127.254C512.02 125.606 512.02 125.606 512.408 127.254C512.699 128.223 512.602 129.289 512.311 129.58ZM535.377 129.483C537.994 130.452 537.316 133.747 534.505 133.747C533.148 133.747 532.082 133.36 532.082 132.875C532.082 132.39 531.791 131.324 531.501 130.452C530.919 128.804 532.567 128.417 535.377 129.483ZM546.135 137.624C546.426 138.109 546.232 138.593 545.748 138.593C545.166 138.593 544.682 138.109 544.682 137.624C544.682 137.042 544.875 136.655 545.069 136.655C545.36 136.655 545.845 137.042 546.135 137.624ZM552.435 138.593C552.435 139.078 552.241 139.562 552.047 139.562C551.757 139.562 551.272 139.078 550.981 138.593C550.691 138.012 550.884 137.624 551.369 137.624C551.95 137.624 552.435 138.012 552.435 138.593ZM500.002 142.858C501.747 144.796 501.941 145.184 500.681 145.668C499.808 146.056 498.548 145.377 497.676 144.118C494.866 140.047 496.513 139.078 500.002 142.858ZM546.62 148.285C546.62 148.77 546.135 149.254 545.554 149.254C545.069 149.254 544.875 148.77 545.166 148.285C545.457 147.703 545.942 147.316 546.232 147.316C546.426 147.316 546.62 147.703 546.62 148.285ZM511.826 152.452C510.276 154.003 509.306 152.452 510.857 150.611C511.729 149.545 512.311 149.448 512.505 150.223C512.699 150.805 512.408 151.871 511.826 152.452ZM574.726 151.193C574.726 151.677 574.339 152.162 573.757 152.162C573.272 152.162 572.788 151.677 572.788 151.193C572.788 150.611 573.272 150.223 573.757 150.223C574.339 150.223 574.726 150.611 574.726 151.193ZM506.883 153.616C506.883 154.391 506.399 155.069 505.914 155.069C505.333 155.069 503.588 156.62 501.941 158.461C499.227 161.563 496.222 162.92 496.222 161.078C496.222 159.818 499.13 156.038 500.196 156.038C500.681 156.038 501.941 155.166 503.007 154.1C505.333 151.774 506.883 151.58 506.883 153.616ZM528.205 176.294C528.205 177.457 526.267 178.717 525.589 178.039C524.91 177.361 526.17 175.422 527.333 175.422C527.818 175.422 528.205 175.81 528.205 176.294ZM529.175 182.206C529.175 182.691 528.69 183.176 528.109 183.176C527.624 183.176 527.43 182.691 527.721 182.206C528.012 181.625 528.496 181.237 528.787 181.237C528.981 181.237 529.175 181.625 529.175 182.206ZM517.06 184.145C517.351 184.629 516.963 185.114 516.091 185.114C515.218 185.114 514.831 184.629 515.122 184.145C515.412 183.563 515.897 183.176 516.091 183.176C516.285 183.176 516.769 183.563 517.06 184.145ZM510.373 194.03C509.5 195.29 508.337 197.229 507.659 198.392C506.69 200.427 504.945 201.396 504.945 200.039C504.945 198.295 509.403 191.898 510.566 191.898C511.729 191.898 511.729 192.286 510.373 194.03ZM503.782 203.722C503.201 205.467 501.068 205.758 501.068 204.11C501.068 203.238 501.747 202.559 502.619 202.559C503.491 202.559 503.976 203.044 503.782 203.722ZM520.452 211.282C520.452 211.767 520.064 212.251 519.483 212.251C518.998 212.251 518.514 211.767 518.514 211.282C518.514 210.7 518.998 210.313 519.483 210.313C520.064 210.313 520.452 210.7 520.452 211.282ZM504.945 217.582C504.945 218.938 504.557 220.005 503.976 220.005C503.491 220.005 503.007 218.938 503.007 217.582C503.007 216.225 503.491 215.159 503.976 215.159C504.557 215.159 504.945 216.225 504.945 217.582ZM518.901 238.516C518.611 239.001 517.932 239.194 517.448 238.807C516.963 238.516 516.769 237.838 517.157 237.353C517.448 236.868 518.126 236.675 518.611 237.062C519.095 237.353 519.289 238.031 518.901 238.516ZM511.439 257.415C511.148 257.706 510.276 257.803 509.597 257.512C508.822 257.221 509.113 256.93 510.179 256.93C511.245 256.834 511.826 257.124 511.439 257.415ZM559.219 275.248C559.219 275.733 558.541 276.217 557.766 276.217C556.99 276.217 556.312 275.733 556.312 275.248C556.312 274.666 556.99 274.279 557.766 274.279C558.541 274.279 559.219 274.666 559.219 275.248ZM532.567 353.752C532.858 354.236 532.858 355.206 532.567 355.69C531.888 356.853 528.205 355.206 528.205 353.752C528.205 352.492 531.791 352.492 532.567 353.752ZM497.579 364.897C497.87 365.673 497.676 366.351 497.289 366.351C496.804 366.351 496.222 365.673 495.835 364.897C495.544 364.122 495.738 363.444 496.126 363.444C496.61 363.444 497.192 364.122 497.579 364.897ZM525.298 379.435C525.298 380.211 524.91 380.889 524.426 380.889C523.166 380.889 522.293 379.338 523.069 378.563C524.135 377.497 525.298 377.981 525.298 379.435ZM502.038 384.184C502.038 385.638 500.293 387.189 499.518 386.413C498.839 385.735 500.196 382.827 501.165 382.827C501.65 382.827 502.038 383.409 502.038 384.184ZM527.236 392.035C527.236 392.81 526.558 393.488 525.783 393.488C524.232 393.488 523.844 392.325 525.007 391.259C526.073 390.096 527.236 390.484 527.236 392.035ZM506.883 395.814C506.883 397.365 505.527 399.303 504.364 399.303C502.813 399.303 502.813 399.11 503.588 396.977C504.073 395.621 506.883 394.651 506.883 395.814ZM523.36 399.303C523.36 399.788 523.166 400.273 522.972 400.273C522.681 400.273 522.197 399.788 521.906 399.303C521.615 398.722 521.809 398.334 522.293 398.334C522.875 398.334 523.36 398.722 523.36 399.303Z" fill="black"/>
<path d="M610.586 120.857C610.586 122.214 610.683 123.183 610.877 122.989C610.974 122.796 611.943 121.632 612.912 120.373C614.753 118.24 614.753 118.24 612.718 118.24C611.071 118.24 610.586 118.822 610.586 120.857Z" fill="black"/>
<path d="M617.371 119.985C617.371 120.857 615.82 123.086 613.979 124.734C611.168 127.351 610.587 128.514 610.587 131.712C610.587 135.492 610.684 135.686 615.433 137.333C618.146 138.302 620.279 139.659 620.279 140.435C620.279 141.404 619.116 141.598 615.433 141.307L610.587 140.822V159.043C610.587 176.682 610.684 177.361 612.525 177.361C614.948 177.361 615.045 178.911 612.622 179.59C610.974 179.977 610.878 182.885 610.393 250.631C610.005 301.997 610.199 321.478 610.974 321.963C611.653 322.447 611.75 322.738 610.974 322.738C610.296 322.738 609.521 331.364 608.745 348.034C607.098 384.766 605.644 395.621 601.283 404.343C597.6 411.612 593.723 413.066 584.419 410.837C583.159 410.546 582.965 413.066 582.674 428.573L582.48 446.6L588.005 448.247C596.049 450.67 607.679 450.476 614.56 447.86C629.098 442.335 638.499 423.436 643.539 390.096C646.931 367.127 650.226 295.698 650.42 239.873C650.517 228.146 650.711 205.176 651.002 188.7L651.389 158.946H660.597H669.707L669.804 167.669C669.998 178.524 669.901 178.233 671.451 179.202C672.518 179.88 672.518 180.074 671.258 180.559C669.804 181.14 669.707 193.449 669.901 314.209L670.192 447.278L692.289 447.569L714.289 447.763V295.213C714.289 174.55 713.999 142.567 713.029 142.179C712.157 141.792 712.157 141.501 713.126 140.435C713.902 139.562 714.289 135.783 714.289 128.708V118.24H707.311H700.236L698.395 122.699C696.456 127.448 694.227 130.161 692.967 129.386C692.095 128.804 693.646 122.117 695.003 120.663C695.487 120.179 695.875 119.403 695.875 119.016C695.875 118.628 678.236 118.24 656.623 118.24C619.794 118.24 617.371 118.337 617.371 119.985ZM648.579 120.373C647.9 121.051 647.416 122.311 647.416 123.183C647.416 125.025 645.768 126.575 644.799 125.703C643.927 124.734 646.834 119.21 648.288 119.21C649.451 119.21 649.451 119.5 648.579 120.373ZM640.631 122.117C640.631 122.602 640.244 123.086 639.662 123.086C639.178 123.086 638.693 122.602 638.693 122.117C638.693 121.536 639.178 121.148 639.662 121.148C640.244 121.148 640.631 121.536 640.631 122.117ZM662.923 123.086C662.923 124.152 662.535 125.025 661.953 125.025C661.469 125.025 660.984 124.831 660.984 124.637C660.984 124.443 660.694 123.571 660.403 122.699C660.015 121.633 660.306 121.148 661.372 121.148C662.244 121.148 662.923 121.923 662.923 123.086ZM623.574 124.928C624.543 126.478 621.732 130.84 619.794 130.84C617.565 130.84 615.433 129.192 615.433 127.448C615.433 125.412 622.508 123.183 623.574 124.928ZM642.57 130.743C642.57 131.227 641.891 131.809 641.116 132.197C640.244 132.487 639.662 132.197 639.662 131.324C639.662 130.549 640.341 129.871 641.116 129.871C641.891 129.871 642.57 130.258 642.57 130.743ZM615.433 132.778C615.433 133.263 615.045 133.747 614.464 133.747C613.979 133.747 613.494 133.263 613.494 132.778C613.494 132.197 613.979 131.809 614.464 131.809C615.045 131.809 615.433 132.197 615.433 132.778ZM628.032 133.65C628.032 134.813 626.094 136.073 625.415 135.395C624.737 134.716 625.997 132.778 627.16 132.778C627.644 132.778 628.032 133.166 628.032 133.65ZM660.015 135.686C660.015 136.17 659.627 136.655 659.046 136.655C658.561 136.655 658.077 136.17 658.077 135.686C658.077 135.104 658.561 134.716 659.046 134.716C659.627 134.716 660.015 135.104 660.015 135.686ZM666.799 155.457C666.799 155.748 666.412 156.232 665.83 156.523C665.346 156.814 664.861 156.62 664.861 156.135C664.861 155.554 665.346 155.069 665.83 155.069C666.412 155.069 666.799 155.263 666.799 155.457ZM679.399 157.395C679.399 157.686 679.011 158.171 678.43 158.461C677.945 158.752 677.46 158.558 677.46 158.074C677.46 157.492 677.945 157.008 678.43 157.008C679.011 157.008 679.399 157.202 679.399 157.395ZM687.152 164.277C687.152 165.052 686.474 165.73 685.698 165.73C683.179 165.73 683.954 163.792 686.958 162.92C687.055 162.823 687.152 163.501 687.152 164.277ZM650.033 165.343C649.742 165.633 648.87 165.73 648.191 165.44C647.416 165.149 647.706 164.858 648.773 164.858C649.839 164.761 650.42 165.052 650.033 165.343ZM641.31 174.162C640.438 175.034 639.662 175.228 639.275 174.647C638.984 174.065 639.468 172.902 640.341 171.933C641.504 170.77 642.085 170.673 642.376 171.545C642.57 172.127 642.182 173.387 641.31 174.162ZM706.536 174.453C706.536 174.938 706.148 175.422 705.567 175.422C705.082 175.422 704.598 174.938 704.598 174.453C704.598 173.871 705.082 173.484 705.567 173.484C706.148 173.484 706.536 173.871 706.536 174.453ZM644.024 182.206C643.733 182.691 643.054 183.176 642.473 183.176C641.988 183.176 641.601 182.691 641.601 182.206C641.601 181.625 642.279 181.237 643.151 181.237C643.927 181.237 644.314 181.625 644.024 182.206ZM698.201 187.246C697.716 187.925 697.426 189.378 697.329 190.348C697.329 192.867 694.906 193.546 694.906 191.026C694.906 189.96 695.39 188.797 695.875 188.506C696.456 188.215 696.844 186.955 696.844 185.792C696.844 184.339 697.135 184.048 697.91 184.823C698.589 185.502 698.686 186.471 698.201 187.246ZM618.825 186.083C618.534 186.568 617.856 187.052 617.274 187.052C616.79 187.052 616.402 186.568 616.402 186.083C616.402 185.502 617.08 185.114 617.953 185.114C618.728 185.114 619.116 185.502 618.825 186.083ZM640.922 189.088C640.244 191.704 638.693 191.414 638.693 188.506C638.693 186.859 639.081 186.277 640.05 186.665C640.825 186.955 641.213 187.925 640.922 189.088ZM616.79 192.383C616.402 193.158 616.014 193.837 615.82 193.837C615.627 193.837 615.433 193.158 615.433 192.383C615.433 191.608 615.82 190.929 616.402 190.929C616.886 190.929 617.08 191.608 616.79 192.383ZM637.724 194.806C636.852 196.453 634.816 197.52 634.816 196.357C634.816 194.806 636.27 192.867 637.336 192.867C638.499 192.867 638.499 193.255 637.724 194.806ZM675.619 195.775C676.104 195.775 676.491 196.163 676.491 196.744C676.491 198.004 673.874 198.004 673.099 196.744C672.711 196.163 672.808 194.903 673.196 194.03C673.874 192.48 673.874 192.48 674.262 194.03C674.553 195 675.134 195.775 675.619 195.775ZM620.279 196.744C620.279 197.229 619.891 197.713 619.406 197.713C618.825 197.713 618.146 197.229 617.856 196.744C617.565 196.163 617.953 195.775 618.728 195.775C619.6 195.775 620.279 196.163 620.279 196.744ZM712.739 204.595C712.448 205.079 711.77 205.273 711.285 204.885C710.8 204.595 710.606 203.916 710.994 203.432C711.285 202.947 711.963 202.753 712.448 203.141C712.933 203.432 713.126 204.11 712.739 204.595ZM615.917 208.374C615.627 208.859 614.948 209.344 614.367 209.344C613.882 209.344 613.494 208.859 613.494 208.374C613.494 207.793 614.173 207.405 615.045 207.405C615.82 207.405 616.208 207.793 615.917 208.374ZM635.204 214.093C636.076 215.449 634.816 218.066 633.266 218.066C632.49 218.066 631.909 217.097 631.909 215.643C631.909 213.22 634.138 212.251 635.204 214.093ZM684.245 224.851C684.245 225.335 683.566 225.82 682.694 225.82C681.919 225.82 681.531 225.335 681.822 224.851C682.113 224.269 682.791 223.881 683.372 223.881C683.857 223.881 684.245 224.269 684.245 224.851ZM696.844 229.115C696.844 229.89 696.456 230.859 695.875 231.15C695.39 231.441 694.906 230.859 694.906 229.793C694.906 228.63 695.39 227.758 695.875 227.758C696.456 227.758 696.844 228.34 696.844 229.115ZM616.402 238.419C616.402 238.904 616.014 239.388 615.433 239.388C614.948 239.388 614.464 238.904 614.464 238.419C614.464 237.838 614.948 237.45 615.433 237.45C616.014 237.45 616.402 237.838 616.402 238.419ZM684.826 242.005C683.857 242.974 682.985 241.52 683.857 240.261C684.439 239.194 684.632 239.194 685.02 240.261C685.214 240.939 685.117 241.714 684.826 242.005ZM684.245 244.622C684.245 246.269 682.888 247.432 682.016 246.56C681.24 245.785 682.306 243.265 683.372 243.265C683.857 243.265 684.245 243.846 684.245 244.622ZM622.023 267.688C621.442 269.433 619.309 269.724 619.309 268.076C619.309 267.204 619.988 266.525 620.86 266.525C621.732 266.525 622.217 267.01 622.023 267.688ZM622.217 271.371C622.217 271.856 621.829 272.34 621.248 272.34C620.763 272.34 620.279 271.856 620.279 271.371C620.279 270.79 620.763 270.402 621.248 270.402C621.829 270.402 622.217 270.79 622.217 271.371ZM699.752 274.376C699.752 274.86 699.364 275.248 698.782 275.248C698.298 275.248 697.813 274.57 697.813 273.697C697.813 272.922 698.298 272.534 698.782 272.825C699.364 273.116 699.752 273.794 699.752 274.376ZM619.019 317.117C618.728 317.892 618.437 317.601 618.437 316.535C618.34 315.469 618.631 314.888 618.922 315.275C619.213 315.566 619.309 316.438 619.019 317.117Z" fill="black"/>
<path d="M764.105 119.597C750.537 122.892 740.748 134.038 736.483 151.193C734.545 158.946 734.545 279.997 736.483 287.847C738.616 296.473 743.268 305.196 748.308 310.236L752.96 314.791L739.1 381.083L725.338 447.278L746.175 447.569C757.612 447.666 767.304 447.472 767.691 447.084C768.079 446.6 773.894 418.009 780.678 383.409C787.366 348.712 793.084 320.218 793.278 319.927C793.762 319.54 794.053 360.148 793.762 387.479C793.665 399.013 793.859 401.629 795.119 402.502C796.476 403.568 796.476 404.149 795.216 407.542C794.247 410.352 793.859 416.361 793.762 429.542V447.763H816.053H838.345V422.079C838.345 405.603 837.957 396.396 837.375 396.396C836.891 396.396 836.406 395.717 836.406 394.942C836.406 394.167 836.794 393.488 837.375 393.488C837.957 393.488 838.345 345.32 838.345 255.864V118.24L803.745 118.337C779.709 118.337 767.497 118.822 764.105 119.597ZM751.894 133.069C750.44 136.17 749.18 136.461 749.18 133.747C749.18 132.681 749.664 131.809 750.149 131.809C750.73 131.809 751.118 131.034 751.118 130.161C751.118 129.095 751.409 128.804 752.087 129.483C752.766 130.161 752.669 131.324 751.894 133.069ZM803.939 133.553C802.776 134.813 801.613 131.421 802.776 129.967C803.745 128.804 804.036 128.901 804.229 130.743C804.423 132.003 804.326 133.263 803.939 133.553ZM763.814 132.1C763.718 132.487 763.718 133.457 763.718 134.232C763.718 135.007 762.845 135.686 761.779 135.686C759.647 135.686 759.259 133.747 761.004 132.003C762.264 130.743 763.911 130.84 763.814 132.1ZM769.533 131.809C769.533 132.293 769.145 132.778 768.563 132.778C768.079 132.778 767.594 132.293 767.594 131.809C767.594 131.227 768.079 130.84 768.563 130.84C769.145 130.84 769.533 131.227 769.533 131.809ZM775.348 134.135C775.348 134.813 774.669 136.752 773.894 138.206L772.44 141.016V138.399C772.44 135.201 773.312 132.778 774.475 132.778C774.96 132.778 775.348 133.36 775.348 134.135ZM770.502 136.17C770.502 136.946 770.114 137.624 769.533 137.624C769.048 137.624 768.563 136.946 768.563 136.17C768.563 135.395 769.048 134.716 769.533 134.716C770.114 134.716 770.502 135.395 770.502 136.17ZM758.387 146.928C757.709 147.703 756.739 149.157 756.449 150.223C755.867 152.162 754.026 152.937 754.026 151.193C754.026 150.708 754.801 148.77 755.673 146.928C756.933 144.311 757.612 143.73 758.484 144.505C759.55 145.377 759.55 145.862 758.387 146.928ZM770.986 148.285C770.696 148.77 770.017 149.254 769.436 149.254C768.951 149.254 768.563 148.77 768.563 148.285C768.563 147.703 769.242 147.316 770.114 147.316C770.89 147.316 771.277 147.703 770.986 148.285ZM793.762 219.035V280.094H790.758C785.718 280.094 781.357 277.477 780 273.503C778.158 268.173 778.158 169.704 780.097 164.47C781.551 160.303 785.136 158.074 790.661 157.977H793.762V219.035ZM770.502 175.81C770.502 176.101 770.114 176.585 769.533 176.876C769.048 177.167 768.563 176.973 768.563 176.488C768.563 175.907 769.048 175.422 769.533 175.422C770.114 175.422 770.502 175.616 770.502 175.81ZM768.563 186.083C768.563 186.568 768.176 187.052 767.594 187.052C767.11 187.052 766.625 186.568 766.625 186.083C766.625 185.502 767.11 185.114 767.594 185.114C768.176 185.114 768.563 185.502 768.563 186.083ZM768.37 205.176C767.982 207.308 763.718 208.181 763.718 206.145C763.718 204.304 764.687 203.528 766.819 203.528C768.079 203.528 768.563 204.11 768.37 205.176ZM775.348 229.115C775.348 229.406 774.96 229.89 774.379 230.181C773.894 230.472 773.409 230.278 773.409 229.793C773.409 229.212 773.894 228.727 774.379 228.727C774.96 228.727 775.348 228.921 775.348 229.115ZM758.678 236.481C759.356 236.481 759.744 236.868 759.356 237.353C758.484 238.904 753.057 238.322 753.057 236.675C753.057 235.705 753.735 235.415 755.286 235.899C756.449 236.19 757.999 236.481 758.678 236.481ZM753.832 244.913C754.22 247.239 751.312 248.789 750.537 246.657C749.761 244.622 750.827 242.102 752.378 242.49C752.96 242.78 753.638 243.846 753.832 244.913ZM836.406 399.497C836.406 401.339 834.662 403.665 833.983 402.986C833.596 402.696 833.789 401.436 834.468 400.37C835.631 398.044 836.406 397.753 836.406 399.497Z" fill="black"/>
<path d="M900.856 378.951C881.278 379.435 880.503 379.532 880.6 381.374C880.697 382.44 880.794 397.85 880.794 415.489L880.988 447.763H902.31H923.632V413.454C923.632 386.801 923.341 379.048 922.469 378.854C921.79 378.66 912.098 378.66 900.856 378.951Z" fill="black"/>
</svg>
