<svg width="286" height="44" viewBox="0 0 286 44" fill="none" xmlns="http://www.w3.org/2000/svg">
<mask id="mask0_317_952" style="mask-type:luminance" maskUnits="userSpaceOnUse" x="0" y="0" width="286" height="44">
<path d="M285.74 0.494385H0V43.191H285.74V0.494385Z" fill="white"/>
</mask>
<g mask="url(#mask0_317_952)">
<mask id="mask1_317_952" style="mask-type:luminance" maskUnits="userSpaceOnUse" x="0" y="0" width="286" height="44">
<path d="M285.74 0.494385H0V43.191H285.74V0.494385Z" fill="white"/>
</mask>
<g mask="url(#mask1_317_952)">
<mask id="mask2_317_952" style="mask-type:luminance" maskUnits="userSpaceOnUse" x="137" y="0" width="149" height="44">
<path d="M285.739 0.494385H137.578V43.191H285.739V0.494385Z" fill="white"/>
</mask>
<g mask="url(#mask2_317_952)">
<path fill-rule="evenodd" clip-rule="evenodd" d="M160.437 34.6517L164.565 21.8427H179.91C179.91 27.5046 177.68 32.9347 173.711 36.9383C169.741 40.9418 164.357 43.191 158.744 43.191C153.131 43.191 147.747 40.9418 143.778 36.9383C139.808 32.9347 137.578 27.5046 137.578 21.8427C137.578 16.1808 139.808 10.7507 143.778 6.74714C147.747 2.7436 153.131 0.494385 158.744 0.494385C160.965 0.494374 163.172 0.84616 165.284 1.5369L160.462 16.5056H146.376L144.655 21.8427H158.744L154.617 34.6517H160.437ZM166.283 16.5056L170.322 3.97416C174.739 6.88512 177.92 11.3537 179.244 16.5056H166.283Z" fill="black"/>
<path d="M211.496 5.70691H190.492V37.8539H196.041V10.0548H205.947V37.8539H211.496V5.70691Z" fill="black"/>
<path d="M213.945 33.0896L214.266 33.3209C214.48 33.4443 214.786 33.5059 215.184 33.5059C216.07 33.5059 216.651 33.0434 216.926 32.1183C217.201 31.1932 217.385 29.4972 217.476 27.0303L217.935 14.5878H233.573V37.8539H228.116V18.9357H222.567L222.246 27.2615C222.154 29.821 221.925 31.9179 221.558 33.5522C221.191 35.1865 220.579 36.3892 219.724 37.1601C218.868 37.931 217.66 38.3164 216.1 38.3164C215.459 38.3164 214.938 38.2393 214.541 38.0851L213.945 37.8539V33.0896Z" fill="black"/>
<path d="M280.098 38.3164C276.46 38.3164 273.739 37.2834 271.935 35.2174C270.162 33.1205 269.275 30.1293 269.275 26.2439C269.275 23.8696 269.673 21.7726 270.467 19.9533C271.262 18.1339 272.44 16.7155 273.999 15.6979C275.588 14.6494 277.545 14.1252 279.869 14.1252C281.214 14.1252 282.376 14.2331 283.354 14.449C284.363 14.634 285.158 14.8961 285.739 15.2353V19.907C285.188 19.5679 284.44 19.244 283.492 18.9357C282.544 18.6273 281.535 18.4731 280.465 18.4731C278.691 18.4731 277.316 19.1207 276.338 20.4158C275.39 21.6801 274.916 23.5766 274.916 26.1052C274.916 28.5104 275.344 30.4223 276.2 31.8407C277.056 33.2592 278.463 33.9685 280.419 33.9685C281.581 33.9685 282.59 33.8297 283.446 33.5522C284.302 33.2747 285.066 32.8892 285.739 32.3958V36.8825C284.424 37.8384 282.544 38.3164 280.098 38.3164Z" fill="black"/>
<path fill-rule="evenodd" clip-rule="evenodd" d="M263.659 17.2705C261.824 15.1737 259.44 14.1252 256.505 14.1252C253.906 14.1252 251.72 14.9578 249.947 16.623C248.173 18.2573 247.088 20.6471 246.691 23.7924H243.573V14.5878H238.115V37.8539H243.573V28.1404H246.645C246.951 31.4399 247.99 33.9685 249.764 35.7261C251.567 37.453 253.814 38.3164 256.505 38.3164C259.44 38.3164 261.824 37.2834 263.659 35.2174C265.524 33.1205 266.456 30.1139 266.456 26.1977C266.456 22.3123 265.524 19.3366 263.659 17.2705ZM259.715 32.1183C259.012 33.3517 257.942 33.9685 256.505 33.9685C255.068 33.9685 253.982 33.3517 253.249 32.1183C252.546 30.8848 252.194 28.9267 252.194 26.2439C252.194 23.5303 252.546 21.5568 253.249 20.3233C253.982 19.0899 255.068 18.4731 256.505 18.4731C257.942 18.4731 259.012 19.0899 259.715 20.3233C260.449 21.5568 260.816 23.5149 260.816 26.1977C260.816 28.9113 260.449 30.8848 259.715 32.1183Z" fill="black"/>
</g>
<path d="M15.6275 37.8539H21.1659V5.68916H13.0876C4.97398 5.68916 0.705532 9.88765 0.705532 16.1143C0.705532 21.0599 3.03378 23.9775 7.23166 26.9663L0 37.8539H5.99702L14.0753 25.6854L11.2885 23.7997C7.86664 21.4869 6.20868 19.6723 6.20868 15.794C6.20868 12.3783 8.60744 10.0656 13.1229 10.0656H15.5922V37.8539H15.6275ZM122.621 38.3165C125.126 38.3165 126.925 37.8539 128.265 36.8933V32.4101C126.89 33.3708 125.231 33.9757 122.939 33.9757C119.023 33.9757 117.436 30.9157 117.436 26.1124C117.436 21.0599 119.411 18.4626 122.974 18.4626C125.09 18.4626 127.136 19.2098 128.23 19.8858V15.2247C127.101 14.5843 125.055 14.1217 122.374 14.1217C115.389 14.1217 111.791 19.1742 111.791 26.2547C111.791 34.0112 115.319 38.3165 122.621 38.3165ZM88.5085 36.2884V31.8053C86.8153 32.9438 83.9579 33.9757 81.3121 33.9757C77.3262 33.9757 75.809 32.0899 75.5973 28.2116H88.7558V25.294C88.7558 17.1817 85.2278 14.1573 79.7603 14.1573C73.0931 14.1217 69.9182 19.2453 69.9182 26.2903C69.9182 34.4026 73.869 38.3165 80.8186 38.3165C84.311 38.3165 86.886 37.3914 88.5085 36.2884ZM38.5219 14.5843V23.7997H31.2197V14.5843H25.7518V37.8539H31.2197V28.1405H38.5219V37.8539H43.9898V14.5843H38.5219ZM68.5775 33.5132H66.1434V14.5843H50.2337V16.5768C50.2337 22.2697 49.8809 29.6348 47.9407 33.5132H46.2475V43.191H51.292V37.8539H63.5328V43.1555H68.5775V33.5132ZM105.935 37.8539H112.108L103.36 25.3296L111.05 14.5843H105.547L97.8572 25.3296V14.5843H92.3891V37.8539H97.8572V26.4326L105.935 37.8539ZM79.6545 18.4626C82.3704 18.4626 83.182 20.7397 83.182 23.6573V24.1199H75.5622C75.7032 20.4195 77.0439 18.4626 79.6545 18.4626ZM60.711 33.5132H52.9853C54.5022 29.9907 54.9255 23.6573 54.9255 19.6367V18.9607H60.711V33.5132Z" fill="black"/>
</g>
</g>
</svg>
